#N canvas 657 74 443 510 10;
#X obj 9 234 dac~;
#X obj 9 6 noise~;
#X obj 27 150 vline~;
#X obj 27 80 random 200;
#X msg 27 126 \$1 1000;
#X obj 27 54 metro 1000;
#X obj 9 171 vcf~ 4;
#X msg 100 131 \$1 1000;
#X obj 100 68 random 21;
#X obj 100 157 line;
#X obj 27 24 loadbang;
#X obj 154 111 loadbang;
#X obj 154 134 delay 100;
#X msg 154 157 2 250;
#X obj 154 181 vline~;
#X obj 9 195 *~;
#X obj 27 103 + 600;
#X obj 100 108 + 9;
#X connect 1 0 6 0;
#X connect 2 0 6 1;
#X connect 3 0 16 0;
#X connect 4 0 2 0;
#X connect 5 0 3 0;
#X connect 5 0 8 0;
#X connect 6 0 15 0;
#X connect 7 0 9 0;
#X connect 8 0 17 0;
#X connect 9 0 6 2;
#X connect 10 0 5 0;
#X connect 11 0 12 0;
#X connect 12 0 13 0;
#X connect 13 0 14 0;
#X connect 14 0 15 1;
#X connect 15 0 0 0;
#X connect 15 0 0 1;
#X connect 16 0 4 0;
#X connect 17 0 7 0;
