#N canvas 419 111 793 497 10;
#X obj 14 226 dac~;
#N canvas 12 244 437 409 oscillator 0;
#X obj 13 179 outlet~;
#X obj 13 121 *~ 0.25;
#X obj 13 43 mtof;
#X obj 46 57 * 1.005;
#X obj 13 155 *~;
#X obj 115 22 inlet;
#X msg 115 116 \$1 1000;
#X obj 115 140 vline~;
#X obj 115 95 / 100;
#X obj 13 13 inlet;
#X obj 46 89 osc~;
#X obj 13 90 osc~;
#X obj 115 44 random 60;
#X obj 115 68 + 40;
#X connect 1 0 4 0;
#X connect 2 0 3 0;
#X connect 2 0 11 0;
#X connect 3 0 10 0;
#X connect 4 0 0 0;
#X connect 5 0 12 0;
#X connect 6 0 7 0;
#X connect 7 0 4 1;
#X connect 8 0 6 0;
#X connect 9 0 2 0;
#X connect 10 0 1 0;
#X connect 11 0 1 0;
#X connect 12 0 13 0;
#X connect 13 0 8 0;
#X restore 14 145 pd oscillator;
#X obj 14 3 loadbang;
#X obj 97 17 metro 2000;
#N canvas 12 244 437 409 oscillator 0;
#X obj 13 179 outlet~;
#X obj 14 90 osc~;
#X obj 13 121 *~ 0.25;
#X obj 46 90 osc~;
#X obj 14 43 mtof;
#X obj 13 155 *~;
#X obj 115 15 inlet;
#X msg 115 116 \$1 1000;
#X obj 115 140 vline~;
#X obj 115 95 / 100;
#X obj 13 13 inlet;
#X obj 47 57 * 1.004;
#X obj 115 39 random 60;
#X obj 115 65 + 40;
#X connect 1 0 2 0;
#X connect 2 0 5 0;
#X connect 3 0 2 0;
#X connect 4 0 1 0;
#X connect 4 0 11 0;
#X connect 5 0 0 0;
#X connect 6 0 12 0;
#X connect 7 0 8 0;
#X connect 8 0 5 1;
#X connect 9 0 7 0;
#X connect 10 0 4 0;
#X connect 11 0 3 0;
#X connect 12 0 13 0;
#X connect 13 0 9 0;
#X restore 109 144 pd oscillator;
#N canvas 12 244 437 409 oscillator 0;
#X obj 13 179 outlet~;
#X obj 14 90 osc~;
#X obj 13 121 *~ 0.25;
#X obj 46 90 osc~;
#X obj 14 43 mtof;
#X obj 13 155 *~;
#X obj 115 14 inlet;
#X msg 115 116 \$1 1000;
#X obj 115 140 vline~;
#X obj 115 95 / 100;
#X obj 13 13 inlet;
#X obj 47 57 * 1.003;
#X obj 115 39 random 60;
#X obj 115 67 + 40;
#X connect 1 0 2 0;
#X connect 2 0 5 0;
#X connect 3 0 2 0;
#X connect 4 0 1 0;
#X connect 4 0 11 0;
#X connect 5 0 0 0;
#X connect 6 0 12 0;
#X connect 7 0 8 0;
#X connect 8 0 5 1;
#X connect 9 0 7 0;
#X connect 10 0 4 0;
#X connect 11 0 3 0;
#X connect 12 0 13 0;
#X connect 13 0 9 0;
#X restore 203 144 pd oscillator;
#N canvas 12 244 437 409 oscillator 0;
#X obj 13 179 outlet~;
#X obj 14 90 osc~;
#X obj 46 90 osc~;
#X obj 14 43 mtof;
#X obj 13 155 *~;
#X obj 115 12 inlet;
#X msg 115 116 \$1 1000;
#X obj 115 140 vline~;
#X obj 115 95 / 100;
#X obj 13 13 inlet;
#X obj 13 121 *~ 0.2;
#X obj 46 57 * 1.002;
#X obj 115 37 random 60;
#X obj 115 65 + 40;
#X connect 1 0 10 0;
#X connect 2 0 10 0;
#X connect 3 0 1 0;
#X connect 3 0 11 0;
#X connect 4 0 0 0;
#X connect 5 0 12 0;
#X connect 6 0 7 0;
#X connect 7 0 4 1;
#X connect 8 0 6 0;
#X connect 9 0 3 0;
#X connect 10 0 4 0;
#X connect 11 0 2 0;
#X connect 12 0 13 0;
#X connect 13 0 8 0;
#X restore 299 144 pd oscillator;
#X msg 299 123 71;
#X msg 203 123 67;
#X msg 109 123 64;
#X msg 14 123 60;
#X obj 14 187 *~ 0.25;
#X text 177 2 This patch implements a simple;
#X text 177 14 4-note drone \, using a metro;
#X text 177 25 object to vary the levels of;
#X text 177 36 the 4 oscillators.;
#X connect 1 0 11 0;
#X connect 2 0 3 0;
#X connect 2 0 10 0;
#X connect 2 0 9 0;
#X connect 2 0 8 0;
#X connect 2 0 7 0;
#X connect 3 0 1 1;
#X connect 3 0 4 1;
#X connect 3 0 5 1;
#X connect 3 0 6 1;
#X connect 4 0 11 0;
#X connect 5 0 11 0;
#X connect 6 0 11 0;
#X connect 7 0 6 0;
#X connect 8 0 5 0;
#X connect 9 0 4 0;
#X connect 10 0 1 0;
#X connect 11 0 0 0;
#X connect 11 0 0 1;
