#N canvas 735 157 356 522 10;
#X obj 10 10 notein;
#X obj 10 34 mtof;
#X obj 10 122 osc~;
#X obj 59 35 moses 1;
#X obj 10 160 *~;
#X obj 10 231 dac~;
#X obj 59 103 vline~;
#X msg 103 77 \$1 250;
#X msg 59 76 0 500;
#X obj 103 55 / 127;
#X connect 0 0 1 0;
#X connect 0 1 3 0;
#X connect 1 0 2 0;
#X connect 2 0 4 0;
#X connect 3 0 8 0;
#X connect 3 1 9 0;
#X connect 4 0 5 0;
#X connect 4 0 5 1;
#X connect 6 0 4 1;
#X connect 7 0 6 0;
#X connect 8 0 6 0;
#X connect 9 0 7 0;
