#N canvas 1062 158 816 753 10;
#X obj 11 215 noteout;
#X obj 11 48 metro 500;
#X obj 11 75 random 12;
#X obj 11 102 + 60;
#X obj 114 207 osc~;
#X obj 147 160 moses 1;
#X obj 114 245 *~;
#X obj 114 276 dac~;
#X obj 147 228 vline~;
#X obj 191 180 / 127;
#X obj 11 28 tgl 15 0 empty empty empty 17 7 0 10 -262144 -1 -1 0 1
;
#X msg 191 202 \$1 10;
#X msg 147 200 0 490;
#X obj 11 128 makenote 127 10;
#X obj 113 187 mtof;
#X obj 11 7 receive Toggle;
#X connect 1 0 2 0;
#X connect 2 0 3 0;
#X connect 3 0 13 0;
#X connect 4 0 6 0;
#X connect 5 0 12 0;
#X connect 5 1 9 0;
#X connect 6 0 7 0;
#X connect 6 0 7 1;
#X connect 8 0 6 1;
#X connect 9 0 11 0;
#X connect 10 0 1 0;
#X connect 11 0 8 0;
#X connect 12 0 8 0;
#X connect 13 0 0 0;
#X connect 13 0 14 0;
#X connect 13 1 0 1;
#X connect 13 1 5 0;
#X connect 14 0 4 0;
#X connect 15 0 10 0;
